<svg width="295" height="300" viewBox="0 0 295 300" fill="none" xmlns="http://www.w3.org/2000/svg">
<g clip-path="url(#clip0_20:2)">
<path d="M245.2 172.222H212.422C209.405 172.222 206.959 174.71 206.959 177.778C206.959 180.847 209.405 183.334 212.422 183.334H229.371L197.634 215.585C195.5 217.755 195.5 221.258 197.634 223.428C198.701 224.513 200.099 225.049 201.497 225.049C202.894 225.049 204.609 224.504 205.676 223.419L240.371 188.454V211.062C240.371 214.13 242.817 216.618 245.834 216.618C248.852 216.618 251.297 214.13 251.297 211.062V177.728C251.296 174.66 248.217 172.222 245.2 172.222Z" fill="#FFA500"/>
<path d="M245.2 16.6664C242.183 16.6664 240.37 19.1045 240.37 22.1725V72.2221H201.766C198.749 72.2221 196.666 74.9367 196.666 78.0047V122.222H152.329C149.313 122.222 147.5 124.627 147.5 127.695V172.222H103.464C100.448 172.222 98.3335 174.662 98.3335 177.731V222.222H53.9959C50.9791 222.222 49.1665 224.937 49.1665 228.005V272.222H0V283.333H53.9959C57.0128 283.333 60.0924 281.072 60.0924 278.004V233.333H103.464C106.481 233.333 109.259 231.072 109.259 228.004V183.332H152.329C155.346 183.332 158.425 180.798 158.425 177.73V133.332H201.765C204.782 133.332 207.592 130.763 207.592 127.695V83.332H245.199C248.216 83.332 251.296 81.0715 251.296 78.0035V27.7775H295V16.6664H245.2Z" fill="#FFA500"/>
<path d="M101.898 265.864C101.898 267.88 101.634 269.632 101.106 271.12C100.626 272.56 100.002 273.808 99.2338 274.864C98.5138 275.872 97.6738 276.712 96.7138 277.384C95.8018 278.008 94.9138 278.512 94.0498 278.896C93.1858 279.232 92.3938 279.472 91.6738 279.616C91.0018 279.76 90.5218 279.832 90.2338 279.832C89.1298 279.832 88.0738 279.592 87.0658 279.112C86.0578 278.584 85.1698 277.888 84.4018 277.024C83.6338 276.16 83.0098 275.152 82.5298 274C82.0978 272.8 81.8818 271.528 81.8818 270.184C81.8818 269.032 82.0258 267.904 82.3138 266.8C82.6018 265.648 82.8898 264.592 83.1778 263.632C83.5138 262.624 83.8258 261.736 84.1138 260.968C84.4018 260.2 84.5458 259.576 84.5458 259.096C84.5458 259 84.5218 258.88 84.4738 258.736C84.4738 258.592 84.4738 258.448 84.4738 258.304C84.4738 258.016 84.5698 257.8 84.7618 257.656C85.1458 257.368 85.4338 257.152 85.6258 257.008C85.8658 256.864 86.1298 256.792 86.4178 256.792C86.7538 256.792 87.2338 256.888 87.8578 257.08C88.4818 257.224 88.9138 257.296 89.1538 257.296C89.3938 257.296 89.6578 257.296 89.9458 257.296C90.2818 257.296 90.6178 257.272 90.9538 257.224C91.3378 257.176 91.7218 257.128 92.1058 257.08C92.7298 257.08 93.5938 257.2 94.6978 257.44C95.8018 257.632 96.8818 258.04 97.9378 258.664C99.0418 259.288 99.9778 260.176 100.746 261.328C101.514 262.48 101.898 263.992 101.898 265.864ZM90.5938 276.448C91.8898 276.448 93.0418 276.184 94.0498 275.656C95.0578 275.08 95.8978 274.312 96.5698 273.352C97.2898 272.392 97.8178 271.288 98.1538 270.04C98.4898 268.744 98.6578 267.4 98.6578 266.008C98.6578 264.952 98.4658 264.04 98.0818 263.272C97.6978 262.504 97.1938 261.88 96.5698 261.4C95.9938 260.92 95.3218 260.584 94.5538 260.392C93.7858 260.152 93.0418 260.032 92.3218 260.032C91.3618 260.032 90.5218 260.104 89.8018 260.248C89.0818 260.392 88.3138 260.464 87.4978 260.464C87.3538 260.896 87.1618 261.472 86.9218 262.192C86.6818 262.912 86.4418 263.68 86.2018 264.496C85.9618 265.264 85.7458 266.032 85.5538 266.8C85.4098 267.52 85.3378 268.168 85.3378 268.744C85.3378 269.464 85.3858 270.28 85.4818 271.192C85.6258 272.104 85.8898 272.944 86.2738 273.712C86.6578 274.48 87.1858 275.128 87.8578 275.656C88.5778 276.184 89.4898 276.448 90.5938 276.448ZM111.648 278.392C111.648 278.68 111.504 278.968 111.216 279.256C110.928 279.496 110.592 279.736 110.208 279.976C109.872 280.168 109.536 280.336 109.2 280.48C108.864 280.576 108.672 280.624 108.624 280.624C108.192 280.624 107.856 280.528 107.616 280.336C107.424 280.096 107.256 279.856 107.112 279.616C107.016 279.328 106.944 279.064 106.896 278.824C106.896 278.584 106.896 278.416 106.896 278.32C106.896 278.128 106.944 277.888 107.04 277.6C107.136 277.264 107.28 276.952 107.472 276.664C107.664 276.376 107.88 276.136 108.12 275.944C108.408 275.704 108.72 275.584 109.056 275.584C109.68 275.584 110.256 275.848 110.784 276.376C111.36 276.904 111.648 277.576 111.648 278.392ZM137.617 265.864C137.617 267.88 137.353 269.632 136.825 271.12C136.345 272.56 135.721 273.808 134.953 274.864C134.233 275.872 133.393 276.712 132.433 277.384C131.521 278.008 130.633 278.512 129.769 278.896C128.905 279.232 128.113 279.472 127.393 279.616C126.721 279.76 126.241 279.832 125.953 279.832C124.849 279.832 123.793 279.592 122.785 279.112C121.777 278.584 120.889 277.888 120.121 277.024C119.353 276.16 118.729 275.152 118.249 274C117.817 272.8 117.601 271.528 117.601 270.184C117.601 269.032 117.745 267.904 118.033 266.8C118.321 265.648 118.609 264.592 118.897 263.632C119.233 262.624 119.545 261.736 119.833 260.968C120.121 260.2 120.265 259.576 120.265 259.096C120.265 259 120.241 258.88 120.193 258.736C120.193 258.592 120.193 258.448 120.193 258.304C120.193 258.016 120.289 257.8 120.481 257.656C120.865 257.368 121.153 257.152 121.345 257.008C121.585 256.864 121.849 256.792 122.137 256.792C122.473 256.792 122.953 256.888 123.577 257.08C124.201 257.224 124.633 257.296 124.873 257.296C125.113 257.296 125.377 257.296 125.665 257.296C126.001 257.296 126.337 257.272 126.673 257.224C127.057 257.176 127.441 257.128 127.825 257.08C128.449 257.08 129.313 257.2 130.417 257.44C131.521 257.632 132.601 258.04 133.657 258.664C134.761 259.288 135.697 260.176 136.465 261.328C137.233 262.48 137.617 263.992 137.617 265.864ZM126.313 276.448C127.609 276.448 128.761 276.184 129.769 275.656C130.777 275.08 131.617 274.312 132.289 273.352C133.009 272.392 133.537 271.288 133.873 270.04C134.209 268.744 134.377 267.4 134.377 266.008C134.377 264.952 134.185 264.04 133.801 263.272C133.417 262.504 132.913 261.88 132.289 261.4C131.713 260.92 131.041 260.584 130.273 260.392C129.505 260.152 128.761 260.032 128.041 260.032C127.081 260.032 126.241 260.104 125.521 260.248C124.801 260.392 124.033 260.464 123.217 260.464C123.073 260.896 122.881 261.472 122.641 262.192C122.401 262.912 122.161 263.68 121.921 264.496C121.681 265.264 121.465 266.032 121.273 266.8C121.129 267.52 121.057 268.168 121.057 268.744C121.057 269.464 121.105 270.28 121.201 271.192C121.345 272.104 121.609 272.944 121.993 273.712C122.377 274.48 122.905 275.128 123.577 275.656C124.297 276.184 125.209 276.448 126.313 276.448ZM157.447 272.848C157.447 273.808 157.207 274.84 156.727 275.944C156.295 277 155.743 278.008 155.071 278.968C154.399 279.928 153.679 280.72 152.911 281.344C152.143 281.968 151.447 282.28 150.823 282.28C150.151 282.28 149.407 282.04 148.591 281.56C147.775 281.08 147.175 280.48 146.791 279.76C146.695 279.52 146.599 279.4 146.503 279.4C146.311 279.4 146.119 279.52 145.927 279.76C145.783 279.952 145.615 280.048 145.423 280.048C145.327 280.048 145.183 279.904 144.991 279.616C144.847 279.28 144.703 278.92 144.559 278.536C144.415 278.104 144.271 277.696 144.127 277.312C144.031 276.928 143.983 276.64 143.983 276.448C143.983 276.304 144.031 276.016 144.127 275.584C144.271 275.104 144.343 274.792 144.343 274.648V271.048C144.343 269.224 144.535 267.184 144.919 264.928C145.351 262.624 145.927 260.464 146.647 258.448C147.415 256.432 148.303 254.752 149.311 253.408C150.319 252.016 151.447 251.32 152.695 251.32C153.511 251.32 154.111 251.512 154.495 251.896C154.879 252.232 155.071 252.544 155.071 252.832C155.071 253.12 154.951 253.336 154.711 253.48C154.471 253.624 154.231 253.792 153.991 253.984C152.983 254.8 152.071 255.832 151.255 257.08C150.487 258.328 149.815 259.672 149.239 261.112C148.711 262.552 148.279 264.04 147.943 265.576C147.655 267.064 147.511 268.48 147.511 269.824C147.751 269.584 148.063 269.32 148.447 269.032C148.879 268.696 149.335 268.384 149.815 268.096C150.295 267.808 150.799 267.568 151.327 267.376C151.855 267.136 152.335 267.016 152.767 267.016C153.727 267.016 154.495 267.208 155.071 267.592C155.695 267.928 156.175 268.384 156.511 268.96C156.895 269.488 157.135 270.112 157.231 270.832C157.375 271.504 157.447 272.176 157.447 272.848ZM154.423 272.416C154.423 271.072 153.943 270.4 152.983 270.4C152.455 270.4 151.879 270.616 151.255 271.048C150.679 271.432 150.127 271.912 149.599 272.488C149.071 273.016 148.639 273.568 148.303 274.144C147.967 274.72 147.799 275.152 147.799 275.44C147.799 275.68 147.895 275.992 148.087 276.376C148.279 276.712 148.495 277.048 148.735 277.384C148.975 277.72 149.239 278.032 149.527 278.32C149.815 278.56 150.079 278.68 150.319 278.68C150.799 278.68 151.279 278.44 151.759 277.96C152.239 277.48 152.671 276.928 153.055 276.304C153.487 275.632 153.823 274.936 154.063 274.216C154.303 273.496 154.423 272.896 154.423 272.416ZM186.658 258.592C186.658 259.12 186.442 259.912 186.01 260.968C185.626 261.976 185.146 263.344 184.57 265.072C184.042 266.752 183.49 268.84 182.914 271.336C182.338 273.784 181.906 276.688 181.618 280.048C181.57 280.672 181.522 281.176 181.474 281.56C181.474 281.944 181.45 282.28 181.402 282.568C181.402 282.856 181.402 283.12 181.402 283.36C181.402 283.648 181.402 283.96 181.402 284.296C181.402 284.632 181.426 284.872 181.474 285.016C181.57 285.208 181.618 285.424 181.618 285.664C181.618 286.768 181.042 287.32 179.89 287.32C179.362 287.32 178.858 287.056 178.378 286.528C177.946 286 177.754 285.424 177.802 284.8C177.85 284.176 177.946 283.024 178.09 281.344C178.282 279.664 178.498 277.816 178.738 275.8C179.026 273.784 179.338 271.792 179.674 269.824C180.01 267.856 180.37 266.272 180.754 265.072C180.226 265.36 179.626 265.648 178.954 265.936C178.282 266.224 177.562 266.488 176.794 266.728C176.026 266.92 175.282 267.088 174.562 267.232C173.842 267.376 173.194 267.448 172.618 267.448C170.602 267.448 168.922 266.752 167.578 265.36C166.234 263.968 165.562 262.216 165.562 260.104C165.562 258.856 165.826 257.752 166.354 256.792C166.93 255.832 167.626 255.04 168.442 254.416C169.306 253.744 170.218 253.24 171.178 252.904C172.138 252.568 173.026 252.4 173.842 252.4C175.81 252.4 177.394 252.736 178.594 253.408C179.842 254.08 180.874 255.568 181.69 257.872C181.738 257.968 181.762 258.112 181.762 258.304C181.81 258.448 181.834 258.544 181.834 258.592C181.834 258.784 181.786 258.976 181.69 259.168C181.642 259.312 181.618 259.48 181.618 259.672C181.618 259.72 181.666 259.888 181.762 260.176C182.29 259.888 182.722 259.36 183.058 258.592C183.442 257.824 183.898 257.128 184.426 256.504C184.522 256.504 184.69 256.576 184.93 256.72C185.17 256.864 185.41 257.056 185.65 257.296C185.938 257.488 186.178 257.704 186.37 257.944C186.562 258.184 186.658 258.4 186.658 258.592ZM179.962 261.544C179.962 261.112 179.866 260.584 179.674 259.96C179.53 259.288 179.242 258.664 178.81 258.088C178.426 257.464 177.898 256.96 177.226 256.576C176.554 256.144 175.714 255.928 174.706 255.928C173.986 255.928 173.266 256.048 172.546 256.288C171.826 256.528 171.178 256.84 170.602 257.224C170.026 257.608 169.546 258.088 169.162 258.664C168.826 259.192 168.658 259.768 168.658 260.392C168.658 261.784 169.09 262.72 169.954 263.2C170.818 263.632 171.874 263.848 173.122 263.848C173.746 263.848 174.442 263.776 175.21 263.632C176.026 263.488 176.77 263.32 177.442 263.128C178.162 262.888 178.762 262.648 179.242 262.408C179.722 262.12 179.962 261.832 179.962 261.544Z" fill="#FFA500"/>
<path d="M183.228 21.848C183.228 22.808 182.988 23.84 182.508 24.944C182.076 26 181.524 27.008 180.852 27.968C180.18 28.928 179.46 29.72 178.692 30.344C177.924 30.968 177.228 31.28 176.604 31.28C175.932 31.28 175.188 31.04 174.372 30.56C173.556 30.08 172.956 29.48 172.572 28.76C172.476 28.52 172.38 28.4 172.284 28.4C172.092 28.4 171.9 28.52 171.708 28.76C171.564 28.952 171.396 29.048 171.204 29.048C171.108 29.048 170.964 28.904 170.772 28.616C170.628 28.28 170.484 27.92 170.34 27.536C170.196 27.104 170.052 26.696 169.908 26.312C169.812 25.928 169.764 25.64 169.764 25.448C169.764 25.304 169.812 25.016 169.908 24.584C170.052 24.104 170.124 23.792 170.124 23.648V20.048C170.124 18.224 170.316 16.184 170.7 13.928C171.132 11.624 171.708 9.464 172.428 7.448C173.196 5.432 174.084 3.752 175.092 2.408C176.1 1.016 177.228 0.319998 178.476 0.319998C179.292 0.319998 179.892 0.511998 180.276 0.895999C180.66 1.232 180.852 1.544 180.852 1.832C180.852 2.12 180.732 2.336 180.492 2.48C180.252 2.624 180.012 2.792 179.772 2.984C178.764 3.8 177.852 4.832 177.036 6.08C176.268 7.328 175.596 8.672 175.02 10.112C174.492 11.552 174.06 13.04 173.724 14.576C173.436 16.064 173.292 17.48 173.292 18.824C173.532 18.584 173.844 18.32 174.228 18.032C174.66 17.696 175.116 17.384 175.596 17.096C176.076 16.808 176.58 16.568 177.108 16.376C177.636 16.136 178.116 16.016 178.548 16.016C179.508 16.016 180.276 16.208 180.852 16.592C181.476 16.928 181.956 17.384 182.292 17.96C182.676 18.488 182.916 19.112 183.012 19.832C183.156 20.504 183.228 21.176 183.228 21.848ZM180.204 21.416C180.204 20.072 179.724 19.4 178.764 19.4C178.236 19.4 177.66 19.616 177.036 20.048C176.46 20.432 175.908 20.912 175.38 21.488C174.852 22.016 174.42 22.568 174.084 23.144C173.748 23.72 173.58 24.152 173.58 24.44C173.58 24.68 173.676 24.992 173.868 25.376C174.06 25.712 174.276 26.048 174.516 26.384C174.756 26.72 175.02 27.032 175.308 27.32C175.596 27.56 175.86 27.68 176.1 27.68C176.58 27.68 177.06 27.44 177.54 26.96C178.02 26.48 178.452 25.928 178.836 25.304C179.268 24.632 179.604 23.936 179.844 23.216C180.084 22.496 180.204 21.896 180.204 21.416ZM195.015 27.392C195.015 27.68 194.871 27.968 194.583 28.256C194.295 28.496 193.959 28.736 193.575 28.976C193.239 29.168 192.903 29.336 192.567 29.48C192.231 29.576 192.039 29.624 191.991 29.624C191.559 29.624 191.223 29.528 190.983 29.336C190.791 29.096 190.623 28.856 190.479 28.616C190.383 28.328 190.311 28.064 190.263 27.824C190.263 27.584 190.263 27.416 190.263 27.32C190.263 27.128 190.311 26.888 190.407 26.6C190.503 26.264 190.647 25.952 190.839 25.664C191.031 25.376 191.247 25.136 191.487 24.944C191.775 24.704 192.087 24.584 192.423 24.584C193.047 24.584 193.623 24.848 194.151 25.376C194.727 25.904 195.015 26.576 195.015 27.392ZM222.424 7.592C222.424 8.12 222.208 8.912 221.776 9.968C221.392 10.976 220.912 12.344 220.336 14.072C219.808 15.752 219.256 17.84 218.68 20.336C218.104 22.784 217.672 25.688 217.384 29.048C217.336 29.672 217.288 30.176 217.24 30.56C217.24 30.944 217.216 31.28 217.168 31.568C217.168 31.856 217.168 32.12 217.168 32.36C217.168 32.648 217.168 32.96 217.168 33.296C217.168 33.632 217.192 33.872 217.24 34.016C217.336 34.208 217.384 34.424 217.384 34.664C217.384 35.768 216.808 36.32 215.656 36.32C215.128 36.32 214.624 36.056 214.144 35.528C213.712 35 213.52 34.424 213.568 33.8C213.616 33.176 213.712 32.024 213.856 30.344C214.048 28.664 214.264 26.816 214.504 24.8C214.792 22.784 215.104 20.792 215.44 18.824C215.776 16.856 216.136 15.272 216.52 14.072C215.992 14.36 215.392 14.648 214.72 14.936C214.048 15.224 213.328 15.488 212.56 15.728C211.792 15.92 211.048 16.088 210.328 16.232C209.608 16.376 208.96 16.448 208.384 16.448C206.368 16.448 204.688 15.752 203.344 14.36C202 12.968 201.328 11.216 201.328 9.104C201.328 7.856 201.592 6.752 202.12 5.792C202.696 4.832 203.392 4.04 204.208 3.416C205.072 2.744 205.984 2.24 206.944 1.904C207.904 1.568 208.792 1.4 209.608 1.4C211.576 1.4 213.16 1.736 214.36 2.408C215.608 3.08 216.64 4.568 217.456 6.872C217.504 6.968 217.528 7.112 217.528 7.304C217.576 7.448 217.6 7.544 217.6 7.592C217.6 7.784 217.552 7.976 217.456 8.168C217.408 8.312 217.384 8.48 217.384 8.672C217.384 8.72 217.432 8.888 217.528 9.176C218.056 8.888 218.488 8.36 218.824 7.592C219.208 6.824 219.664 6.128 220.192 5.504C220.288 5.504 220.456 5.576 220.696 5.72C220.936 5.864 221.176 6.056 221.416 6.296C221.704 6.488 221.944 6.704 222.136 6.944C222.328 7.184 222.424 7.4 222.424 7.592ZM215.728 10.544C215.728 10.112 215.632 9.584 215.44 8.96C215.296 8.288 215.008 7.664 214.576 7.088C214.192 6.464 213.664 5.96 212.992 5.576C212.32 5.144 211.48 4.928 210.472 4.928C209.752 4.928 209.032 5.048 208.312 5.288C207.592 5.528 206.944 5.84 206.368 6.224C205.792 6.608 205.312 7.088 204.928 7.664C204.592 8.192 204.424 8.768 204.424 9.392C204.424 10.784 204.856 11.72 205.72 12.2C206.584 12.632 207.64 12.848 208.888 12.848C209.512 12.848 210.208 12.776 210.976 12.632C211.792 12.488 212.536 12.32 213.208 12.128C213.928 11.888 214.528 11.648 215.008 11.408C215.488 11.12 215.728 10.832 215.728 10.544Z" fill="#FFA500"/>
</g>
<defs>
<clipPath id="clip0_20:2">
<rect width="295" height="300" fill="white"/>
</clipPath>
</defs>
</svg>
